<?xml version="1.0" standalone="no"?>
<!DOCTYPE svg PUBLIC "-//W3C//DTD SVG 20010904//EN"
 "http://www.w3.org/TR/2001/REC-SVG-20010904/DTD/svg10.dtd">
<svg version="1.0" xmlns="http://www.w3.org/2000/svg"
 width="1024.000000pt" height="1024.000000pt" viewBox="0 0 1024.000000 1024.000000"
 preserveAspectRatio="xMidYMid meet">

<g transform="translate(0.000000,1024.000000) scale(0.100000,-0.100000)"
fill="#000000" stroke="none">
<path d="M5065 9510 c-27 -11 -61 -49 -74 -83 -8 -19 -11 -378 -11 -1144 l0
-1115 -92 98 c-180 193 -293 306 -320 320 -37 19 -87 18 -128 -5 -40 -21 -80
-89 -80 -135 0 -61 4 -65 494 -580 97 -101 185 -185 203 -192 42 -18 87 -18
123 1 15 8 152 144 302 302 414 434 396 411 385 493 -13 102 -129 162 -212
112 -16 -11 -111 -106 -210 -213 l-180 -195 -5 1131 c-5 1089 -6 1131 -24
1158 -34 50 -112 72 -171 47z"/>
<path d="M3439 8825 c-20 -13 -40 -32 -45 -42 -5 -10 -11 -517 -14 -1127 l-5
-1110 -188 201 c-103 110 -199 205 -213 212 -66 30 -145 -1 -182 -70 -30 -55
-25 -104 15 -157 51 -71 613 -657 646 -674 45 -25 107 -23 147 5 19 12 174
169 346 349 265 278 315 334 324 370 30 109 -61 205 -174 184 -28 -5 -70 -44
-232 -214 l-199 -208 -5 1111 c-5 1022 -6 1112 -22 1134 -46 65 -134 81 -199
36z"/>
<path d="M6644 8840 c-31 -12 -72 -66 -79 -103 -3 -18 -4 -517 -3 -1109 l3
-1077 -23 21 c-12 12 -97 101 -189 199 -91 97 -177 182 -190 188 -115 52 -239
-72 -193 -193 5 -14 121 -143 257 -287 136 -144 281 -297 321 -340 47 -50 85
-82 108 -89 47 -16 116 -8 147 16 13 11 164 167 335 348 345 364 349 370 318
451 -25 65 -66 98 -128 102 -69 6 -74 2 -294 -233 l-179 -190 -5 1114 -5 1113
-42 40 c-37 34 -48 39 -90 38 -26 0 -57 -4 -69 -9z"/>
<path d="M1470 6228 c-56 -39 -74 -72 -74 -134 1 -62 19 -94 74 -131 33 -23
36 -23 396 -23 l362 0 11 -32 c16 -50 367 -1344 682 -2513 32 -121 79 -292
103 -380 35 -126 41 -163 32 -177 -122 -177 -153 -247 -163 -376 -11 -153 40
-312 134 -413 63 -68 128 -99 211 -99 l64 0 -42 -47 c-22 -26 -59 -83 -81
-127 -134 -273 -67 -606 162 -796 109 -91 195 -129 340 -151 267 -41 556 115
678 365 53 109 66 170 65 301 -1 92 -5 123 -28 190 -29 85 -67 154 -123 223
l-34 42 875 0 876 0 -47 -57 c-185 -229 -190 -568 -10 -810 78 -105 216 -199
347 -236 299 -84 632 65 770 347 119 241 79 536 -98 729 l-26 27 100 0 c146 0
202 36 211 137 5 59 -18 108 -66 140 l-34 23 -1930 0 c-1925 0 -1930 0 -1963
20 -47 29 -68 91 -62 177 8 105 73 210 159 254 37 19 80 19 1756 19 1144 0
1740 4 1783 11 272 43 517 228 625 472 13 31 72 217 130 414 59 197 160 536
225 753 316 1056 298 980 260 1068 -28 66 -101 133 -178 164 l-57 23 -2626 3
-2626 2 -57 218 c-61 231 -79 277 -129 331 -67 71 -64 71 -528 71 -415 0 -416
0 -449 -22z m6346 -935 c-3 -10 -54 -184 -115 -388 -437 -1477 -471 -1586
-514 -1650 -67 -99 -168 -171 -282 -201 -41 -11 -373 -14 -1811 -14 l-1761 0
-83 313 c-46 171 -113 427 -150 567 -59 222 -354 1325 -367 1373 -5 16 121 17
2542 17 2420 0 2546 -1 2541 -17z m-3904 -3465 c109 -50 181 -140 214 -268 41
-161 -45 -334 -204 -412 -61 -30 -75 -33 -157 -33 -76 0 -99 5 -147 27 -76 35
-151 107 -185 177 -25 50 -28 67 -28 161 0 94 3 111 27 160 51 104 127 172
231 206 65 21 181 13 249 -18z m2690 -1 c80 -36 152 -106 191 -186 29 -60 32
-74 32 -161 0 -87 -3 -101 -32 -161 -39 -79 -102 -140 -181 -177 -49 -23 -70
-27 -152 -27 -87 0 -101 3 -161 32 -78 39 -140 102 -177 181 -23 49 -27 70
-27 152 0 83 4 103 28 155 27 59 84 127 140 167 88 64 232 74 339 25z"/>
</g>
</svg>
